HIERARCHY
ROOT Hips
{
	OFFSET 0.00 0.00 0.00
	CHANNELS 6 Xposition Yposition Zposition Xrotation Yrotation Zrotation
	JOINT Spine
	{
		OFFSET 0.00000 1.72418 2.58627
		CHANNELS 3 Xrotation Yrotation Zrotation
		JOINT Spine1
		{
			OFFSET 0.00000 0.59880 3.39597
			CHANNELS 3 Xrotation Yrotation Zrotation
			JOINT Spine2
			{
				OFFSET 0.00000 0.30055 3.43524
				CHANNELS 3 Xrotation Yrotation Zrotation
				JOINT Spine3
				{
					OFFSET 0.00000 0.00000 3.44836
					CHANNELS 3 Xrotation Yrotation Zrotation
					JOINT Neck
					{
						OFFSET 0.00000 -1.29313 9.05195
						CHANNELS 3 Xrotation Yrotation Zrotation
						JOINT Head
						{
							OFFSET 0.00000 -0.82335 4.66946
							CHANNELS 3 Xrotation Yrotation Zrotation
							End Site
							{
								OFFSET 0.00000 0.00001 5.58203
							}
						}
					}
					JOINT RightShoulder
					{
						OFFSET -1.18828 -1.98046 6.41673
						CHANNELS 3 Xrotation Yrotation Zrotation
						JOINT RightArm
						{
							OFFSET -5.90180 0.00000 0.00000
							CHANNELS 3 Xrotation Yrotation Zrotation
							JOINT RightForeArm
							{
								OFFSET -11.45951 0.00000 0.00000
								CHANNELS 3 Xrotation Yrotation Zrotation
								JOINT RightHand
								{
									OFFSET -10.63451 0.00000 0.00000
									CHANNELS 3 Xrotation Yrotation Zrotation
									JOINT RightHandEnd
									{
										OFFSET -2.86944 0.00000 0.00000
										CHANNELS 3 Xrotation Yrotation Zrotation
										End Site
										{
											OFFSET -2.86944 0.00000 0.00000
										}
									}
									JOINT RightHandThumb1
									{
										OFFSET -1.14778 -1.91296 -0.76518
										CHANNELS 3 Yrotation Xrotation Zrotation
										End Site
										{
											OFFSET -2.77167 -0.74267 0.00000
										}
									}
								}
							}
						}
					}
					JOINT LeftShoulder
					{
						OFFSET 1.18828 -1.98046 6.41673
						CHANNELS 3 Xrotation Yrotation Zrotation
						JOINT LeftArm
						{
							OFFSET 5.90180 0.00000 0.00000
							CHANNELS 3 Xrotation Yrotation Zrotation
							JOINT LeftForeArm
							{
								OFFSET 11.45951 0.00000 0.00000
								CHANNELS 3 Xrotation Yrotation Zrotation
								JOINT LeftHand
								{
									OFFSET 10.63451 0.00000 0.00000
									CHANNELS 3 Xrotation Yrotation Zrotation
									JOINT LeftHandEnd
									{
										OFFSET 2.86944 0.00000 0.00000
										CHANNELS 3 Xrotation Yrotation Zrotation
										End Site
										{
											OFFSET 2.86944 0.00000 0.00000
										}
									}
									JOINT LeftHandThumb1
									{
										OFFSET 1.14778 -1.91296 -0.76518
										CHANNELS 3 Yrotation Xrotation Zrotation
										End Site
										{
											OFFSET 2.77167 -0.74267 0.00000
										}
									}
								}
							}
						}
					}
				}
			}
		}
	}
	JOINT RightUpLeg
	{
		OFFSET -3.52524 0.00000 -1.02984
		CHANNELS 3 Xrotation Yrotation Zrotation
		JOINT RightLeg
		{
			OFFSET 0.00001 0.00000 -17.80965
			CHANNELS 3 Xrotation Yrotation Zrotation
			JOINT RightFoot
			{
				OFFSET 0.00001 0.00000 -17.00908
				CHANNELS 3 Xrotation Yrotation Zrotation
				JOINT RightToeBase
				{
					OFFSET 0.00000 -5.55853 -2.02314
					CHANNELS 3 Xrotation Yrotation Zrotation
					End Site
					{
						OFFSET 0.00000 -2.85188 -0.00000
					}
				}
			}
		}
	}
	JOINT LeftUpLeg
	{
		OFFSET 3.52524 0.00000 -1.02984
		CHANNELS 3 Xrotation Yrotation Zrotation
		JOINT LeftLeg
		{
			OFFSET 0.00001 0.00000 -17.80965
			CHANNELS 3 Xrotation Yrotation Zrotation
			JOINT LeftFoot
			{
				OFFSET 0.00001 0.00000 -17.00908
				CHANNELS 3 Xrotation Yrotation Zrotation
				JOINT LeftToeBase
				{
					OFFSET 0.00000 -5.55853 -2.02314
					CHANNELS 3 Xrotation Yrotation Zrotation
					End Site
					{
						OFFSET 0.00000 -2.85188 -0.00000
					}
				}
			}
		}
	}
}
MOTION
Frames: 16
Frame Time: 0.008342
 1.6193 31.7247 36.8743 6.9283 4.7169 -170.0321 2.3433 0.7231 -0.1573 1.1587 -0.9029 0.0892 -0.4288 6.9732 5.9397 0.0506 3.0038 -2.3760 3.4908 12.0891 7.2003 -3.8398 3.5992 3.0984 -20.4758 28.5227 27.3000 -52.2549 9.0180 36.9430 -0.0000 0.0000 39.0992 12.2912 38.2596 -13.6166 -0.0000 -0.0000 -0.0000 0.0000 -0.0000 -0.0000 -8.8399 -11.9062 2.5505 -49.1905 -3.0603 12.7315 -0.0000 -0.0000 -26.5824 -22.3822 -39.4313 1.2585 -0.0000 -0.0000 -0.0000 -0.0000 -0.0000 -0.0000 -8.4552 -2.2375 -24.2119 31.3637 0.0000 0.0000 -19.6881 9.7494 -9.9430 -0.8221 0.0000 -0.0000 -9.5506 -6.6244 -1.7782 69.8263 0.0000 0.0000 9.6226 -0.1504 -3.1632 -12.3144 0.0000 -0.0000
 1.6478 32.0000 36.8402 6.9971 4.6367 -170.3653 2.3741 0.5831 -0.0941 1.1651 -0.9021 0.0992 -0.3255 7.0147 6.1748 0.0913 3.0438 -2.3569 3.5553 11.9732 7.2024 -3.7832 3.6179 2.9681 -20.3999 28.5426 27.3949 -52.5626 8.4588 37.4967 -0.0000 0.0000 41.1598 13.6931 38.1309 -13.4415 -0.0000 0.0000 -0.0000 -0.0000 -0.0000 0.0000 -8.3420 -11.7493 3.0354 -50.3463 -2.4919 14.0711 -0.0000 -0.0000 -26.7132 -23.3740 -39.7255 1.5471 -0.0000 -0.0000 0.0000 0.0000 -0.0000 0.0000 -8.1178 -2.4331 -24.0548 31.6993 0.0000 0.0000 -20.2065 9.7437 -9.8966 -0.8257 0.0000 -0.0000 -10.7033 -6.6434 -1.6881 70.4531 0.0000 0.0000 7.8582 -0.4859 -2.0783 -13.2676 0.0000 -0.0000
 1.6740 32.2737 36.8071 7.0621 4.5680 -170.6945 2.4055 0.4566 -0.0313 1.1731 -0.8974 0.1083 -0.2285 7.0562 6.3949 0.1289 3.0811 -2.3421 3.6283 11.8715 7.1990 -3.7224 3.6203 2.8169 -20.3031 28.5487 27.4693 -52.7686 7.9601 38.0369 -0.0000 0.0000 43.2623 15.0490 38.0168 -13.1696 -0.0000 -0.0000 -0.0000 -0.0000 -0.0000 -0.0000 -7.8246 -11.5744 3.5563 -51.4964 -1.9286 15.3800 -0.0000 -0.0000 -26.7958 -24.3345 -40.0816 1.8783 0.0000 -0.0000 -0.0000 0.0000 -0.0000 0.0000 -7.7566 -2.6085 -23.9230 31.9968 0.0000 0.0000 -20.7181 9.7626 -9.8197 -0.8200 0.0000 -0.0000 -11.8235 -6.6405 -1.6004 70.8881 0.0000 0.0000 6.2410 -0.7854 -1.1235 -13.9661 0.0000 -0.0000
 1.6983 32.5451 36.7746 7.1083 4.4988 -171.0164 2.4234 0.3323 0.0316 1.1824 -0.8895 0.1198 -0.1382 7.1008 6.5947 0.1638 3.1146 -2.3268 3.7086 11.7870 7.1877 -3.6616 3.6075 2.6435 -20.1795 28.5481 27.5191 -52.8840 7.5334 38.5677 -0.0000 0.0000 45.3942 16.3689 37.9268 -12.8074 -0.0000 -0.0000 -0.0000 -0.0000 0.0000 -0.0000 -7.2985 -11.3684 4.1052 -52.6201 -1.3755 16.6439 -0.0000 -0.0000 -26.8234 -25.2647 -40.4968 2.2408 -0.0000 -0.0000 0.0000 0.0000 -0.0000 0.0000 -7.3929 -2.7771 -23.8072 32.2550 0.0000 0.0000 -21.2242 9.7912 -9.7273 -0.8175 0.0000 -0.0000 -12.9309 -6.6248 -1.5233 71.1437 0.0000 0.0000 4.7704 -1.0274 -0.2959 -14.3815 0.0000 -0.0000
 1.7207 32.8150 36.7437 7.1609 4.4358 -171.3297 2.4562 0.2166 0.0944 1.1926 -0.8842 0.1277 -0.0566 7.1483 6.7849 0.1965 3.1491 -2.3191 3.7917 11.7144 7.1692 -3.6006 3.5846 2.4512 -20.0358 28.5401 27.5480 -52.9128 7.1825 39.0918 -0.0000 0.0000 47.5440 17.6632 37.8673 -12.3625 -0.0000 0.0000 -0.0000 -0.0000 -0.0000 -0.0000 -6.7712 -11.1389 4.6814 -53.7098 -0.8243 17.8670 -0.0000 -0.0000 -26.8038 -26.1417 -40.9638 2.6454 -0.0000 0.0000 0.0000 0.0000 -0.0000 0.0000 -6.9982 -2.9371 -23.7039 32.4689 0.0000 0.0000 -21.7275 9.8121 -9.6259 -0.8288 0.0000 -0.0000 -13.9918 -6.5896 -1.4612 71.2177 0.0000 0.0000 3.4361 -1.1958 0.4199 -14.5308 0.0000 -0.0000
 1.7420 33.0826 36.7138 7.1998 4.3636 -171.6317 2.4835 0.0946 0.1567 1.2033 -0.8788 0.1367 0.0167 7.2002 6.9588 0.2274 3.1811 -2.3130 3.8748 11.6583 7.1441 -3.5427 3.5514 2.2383 -19.8726 28.5296 27.5550 -52.8662 6.9093 39.6125 -0.0000 0.0001 49.7029 18.9360 37.8401 -11.8393 -0.0000 -0.0000 0.0000 -0.0000 -0.0000 0.0000 -6.2543 -10.8719 5.2751 -54.7516 -0.2830 19.0390 -0.0000 -0.0000 -26.7385 -26.9681 -41.4725 3.0865 0.0000 0.0000 -0.0000 -0.0000 -0.0000 0.0000 -6.6013 -3.1046 -23.6027 32.6400 0.0000 0.0000 -22.2237 9.8124 -9.5303 -0.8617 0.0000 -0.0000 -15.0321 -6.5476 -1.4176 71.1216 0.0000 0.0000 2.2157 -1.2812 1.0412 -14.4599 0.0000 -0.0000
 1.7621 33.3479 36.6852 7.2245 4.2816 -171.9219 2.5062 -0.0348 0.2185 1.2140 -0.8740 0.1462 0.0816 7.2568 7.1184 0.2576 3.2124 -2.3085 3.9531 11.6153 7.1120 -3.4889 3.5123 2.0075 -19.6926 28.5206 27.5393 -52.7557 6.7090 40.1296 -0.0000 0.0001 51.8647 20.1910 37.8436 -11.2462 0.0000 0.0000 -0.0000 -0.0000 -0.0000 -0.0000 -5.7540 -10.5694 5.8806 -55.7472 0.2499 20.1657 -0.0000 -0.0000 -26.6416 -27.7428 -42.0107 3.5598 0.0000 0.0000 -0.0000 0.0000 0.0000 0.0000 -6.2060 -3.2807 -23.4984 32.7708 0.0000 0.0000 -22.7101 9.7821 -9.4462 -0.9191 0.0000 -0.0000 -16.0494 -6.4985 -1.3902 70.8561 0.0000 0.0000 1.0857 -1.2790 1.5904 -14.2268 0.0000 -0.0000
 1.7808 33.6112 36.6583 7.2455 4.1933 -172.2003 2.5359 -0.1668 0.2793 1.2244 -0.8746 0.1533 0.1393 7.3196 7.2709 0.2850 3.2447 -2.3109 4.0254 11.5822 7.0768 -3.4414 3.4706 1.7601 -19.4975 28.5118 27.5065 -52.5914 6.5819 40.6439 -0.0000 0.0001 54.0213 21.4353 37.8714 -10.5978 0.0000 0.0000 -0.0000 0.0000 -0.0000 -0.0000 -5.2753 -10.2329 6.4954 -56.6905 0.7757 21.2486 -0.0000 -0.0000 -26.5212 -28.4953 -42.5718 4.0333 -0.0000 -0.0000 0.0000 -0.0000 -0.0000 0.0000 -5.8015 -3.4643 -23.3889 32.8615 0.0000 0.0000 -23.1830 9.7166 -9.3755 -0.9973 0.0000 -0.0000 -17.0275 -6.4403 -1.3749 70.4181 0.0000 0.0000 0.0244 -1.1885 2.0898 -13.8927 0.0000 -0.0000
 1.7982 33.8725 36.6332 7.2556 4.0941 -172.4665 2.5645 -0.3068 0.3384 1.2335 -0.8790 0.1592 0.1904 7.3884 7.4149 0.3122 3.2785 -2.3180 4.0846 11.5570 7.0397 -3.3975 3.4279 1.4980 -19.2900 28.5084 27.4573 -52.3862 6.5204 41.1517 -0.0000 0.0001 56.1693 22.6429 37.9150 -9.8826 -0.0000 -0.0000 -0.0000 -0.0000 0.0000 -0.0000 -4.8158 -9.8621 7.1147 -57.5965 1.2906 22.2945 -0.0000 -0.0000 -26.3932 -29.2070 -43.1401 4.5197 -0.0000 0.0000 0.0000 -0.0000 -0.0000 0.0000 -5.3977 -3.6594 -23.2716 32.9146 0.0000 0.0000 -23.6364 9.6188 -9.3206 -1.0893 0.0000 -0.0000 -17.9719 -6.3786 -1.3647 69.8087 0.0000 0.0000 -0.9878 -1.0131 2.5550 -13.5127 0.0000 -0.0000
 1.8138 34.1320 36.6099 7.2541 3.9869 -172.7224 2.5908 -0.4531 0.3961 1.2415 -0.8859 0.1648 0.2356 7.4618 7.5514 0.3391 3.3154 -2.3295 4.1289 11.5361 7.0016 -3.3574 3.3870 1.2227 -19.0715 28.5139 27.3932 -52.1501 6.5157 41.6495 -0.0000 0.0001 58.3040 23.8134 37.9634 -9.1128 0.0000 0.0000 -0.0000 0.0000 0.0000 0.0000 -4.3748 -9.4622 7.7349 -58.4718 1.7955 23.3133 -0.0000 -0.0000 -26.2714 -29.8978 -43.7082 4.9935 -0.0000 -0.0000 -0.0000 0.0000 -0.0000 0.0000 -4.9957 -3.8624 -23.1468 32.9332 0.0000 0.0000 -24.0665 9.4956 -9.2780 -1.1838 0.0000 -0.0000 -18.8786 -6.3134 -1.3499 69.0258 0.0000 0.0000 -1.9617 -0.7565 2.9976 -13.1319 0.0000 -0.0000
 1.8276 34.3899 36.5885 7.2417 3.8730 -172.9684 2.6143 -0.6035 0.4522 1.2483 -0.8979 0.1686 0.2764 7.5422 7.6832 0.3642 3.3547 -2.3462 4.1573 11.5176 6.9650 -3.3201 3.3488 0.9344 -18.8447 28.5296 27.3198 -51.8906 6.5632 42.1343 -0.0000 0.0001 60.4185 24.9311 38.0065 -8.2904 -0.0000 -0.0000 -0.0000 -0.0000 -0.0000 0.0000 -3.9479 -9.0347 8.3532 -59.3217 2.2890 24.3097 -0.0000 -0.0000 -26.1632 -30.5792 -44.2700 5.4350 -0.0000 0.0000 -0.0000 0.0000 -0.0000 -0.0000 -4.5937 -4.0721 -23.0147 32.9183 0.0000 0.0000 -24.4697 9.3587 -9.2461 -1.2682 0.0000 -0.0000 -19.7421 -6.2469 -1.3210 68.0686 0.0000 0.0000 -2.9003 -0.4235 3.4199 -12.7801 0.0000 -0.0000
 1.8392 34.6467 36.5688 7.2166 3.7576 -173.2067 2.6315 -0.7575 0.5075 1.2546 -0.9053 0.1738 0.3148 7.6224 7.8072 0.3872 3.3993 -2.3670 4.1686 11.4969 6.9300 -3.2841 3.3157 0.6351 -18.6117 28.5582 27.2364 -51.6148 6.6495 42.6048 -0.0000 0.0001 62.5054 25.9826 38.0360 -7.4187 -0.0000 0.0000 -0.0000 0.0000 0.0000 0.0000 -3.5289 -8.5879 8.9686 -60.1580 2.7742 25.2955 -0.0000 -0.0000 -26.0789 -31.2534 -44.8188 5.8284 -0.0000 0.0000 0.0000 0.0000 -0.0000 0.0000 -4.1921 -4.2818 -22.8765 32.8733 0.0000 0.0000 -24.8453 9.2208 -9.2200 -1.3309 0.0000 -0.0000 -20.5578 -6.1778 -1.2665 66.9369 0.0000 0.0000 -3.7975 -0.0194 3.8169 -12.4709 0.0000 -0.0000
 1.8485 34.9028 36.5507 7.1839 3.6380 -173.4382 2.6482 -0.9086 0.5617 1.2592 -0.9338 0.1721 0.3453 7.7213 7.9365 0.4092 3.4432 -2.3927 4.1652 11.4775 6.8955 -3.2451 3.2855 0.3246 -18.3774 28.5985 27.1579 -51.3223 6.7856 43.0530 -0.0000 0.0001 64.5608 26.9590 38.0395 -6.5189 -0.0000 -0.0000 -0.0000 -0.0000 -0.0000 0.0000 -3.1107 -8.1120 9.5749 -60.9797 3.2450 26.2616 -0.0000 -0.0000 -26.0170 -31.9196 -45.3571 6.1700 0.0000 -0.0000 -0.0000 -0.0000 -0.0000 -0.0000 -3.7831 -4.4946 -22.7366 32.7956 0.0000 0.0000 -25.1913 9.0923 -9.1947 -1.3645 0.0000 -0.0000 -21.3172 -6.1135 -1.1804 65.6357 0.0000 0.0000 -4.6419 0.4500 4.1757 -12.2031 0.0000 -0.0000
 1.8552 35.1584 36.5340 7.1367 3.5213 -173.6660 2.6549 -1.0633 0.6162 1.2636 -0.9506 0.1742 0.3720 7.8146 8.0589 0.4302 3.4947 -2.4209 4.1473 11.4519 6.8621 -3.2034 3.2603 0.0042 -18.1390 28.6536 27.0742 -51.0239 6.9491 43.4831 -0.0000 0.0001 66.5733 27.8438 38.0149 -5.5864 -0.0000 0.0000 -0.0000 -0.0000 -0.0000 0.0000 -2.6901 -7.6242 10.1743 -61.7973 3.7111 27.2250 -0.0000 -0.0000 -25.9849 -32.5641 -45.8767 6.4524 -0.0000 0.0000 0.0000 -0.0000 0.0000 0.0000 -3.3735 -4.7001 -22.5948 32.6918 0.0000 0.0000 -25.5121 8.9822 -9.1656 -1.3646 0.0000 -0.0000 -22.0214 -6.0495 -1.0514 64.1702 0.0000 0.0000 -5.4141 0.9762 4.4786 -11.9676 0.0000 -0.0000
 1.8593 35.4141 36.5184 7.0805 3.4096 -173.8902 2.6567 -1.2135 0.6718 1.2684 -0.9729 0.1737 0.3927 7.9162 8.1826 0.4479 3.5483 -2.4523 4.1194 11.4205 6.8283 -3.1557 3.2409 -0.3256 -17.9033 28.7188 26.9943 -50.7139 7.1426 43.8951 -0.0000 0.0001 68.5327 28.6427 37.9629 -4.6494 -0.0000 -0.0000 -0.0000 -0.0000 0.0000 -0.0000 -2.2664 -7.1200 10.7619 -62.5974 4.1708 28.1750 -0.0000 -0.0000 -25.9736 -33.1827 -46.3808 6.6719 -0.0000 -0.0000 0.0000 -0.0000 -0.0000 0.0000 -2.9556 -4.8968 -22.4534 32.5611 0.0000 0.0000 -25.8103 8.8950 -9.1312 -1.3333 0.0000 -0.0000 -22.6613 -5.9871 -0.8762 62.5500 0.0000 0.0000 -6.0935 1.5494 4.7052 -11.7523 0.0000 -0.0000
 1.8608 35.6701 36.5035 7.0121 3.3012 -174.1122 2.6499 -1.3659 0.7300 1.2735 -0.9884 0.1757 0.4069 8.0159 8.3042 0.4637 3.6067 -2.4856 4.0860 11.3833 6.7907 -3.1033 3.2243 -0.6628 -17.6727 28.7926 26.9169 -50.3935 7.3582 44.2896 -0.0000 0.0001 70.4316 29.3494 37.8795 -3.7199 0.0000 -0.0000 0.0000 0.0000 0.0000 0.0000 -1.8347 -6.6067 11.3364 -63.3864 4.6314 29.1170 -0.0000 -0.0000 -25.9822 -33.7572 -46.8658 6.8300 0.0000 -0.0000 0.0000 -0.0000 0.0000 0.0000 -2.5333 -5.0846 -22.3129 32.4058 0.0000 0.0000 -26.0897 8.8292 -9.0894 -1.2785 0.0000 -0.0000 -23.2400 -5.9283 -0.6542 60.7891 0.0000 0.0000 -6.6605 2.1556 4.8368 -11.5498 0.0000 -0.0000
